{
	"asset":{
		"generator":"Khronos glTF Blender I/O v4.2.83",
		"version":"2.0"
	},
	"scene":0,
	"scenes":[
		{
			"name":"Scene",
			"nodes":[
				0
			]
		}
	],
	"nodes":[
		{
			"mesh":0,
			"name":"Ibuprofen (Advil)",
			"rotation":[
				0,
				0,
				-0.18989647924900055,
				0.9818041324615479
			]
		}
	],
	"materials":[
		{
			"doubleSided":true,
			"name":"Carbon new",
			"pbrMetallicRoughness":{
				"baseColorFactor":[
					0.020396854728460312,
					0.020396854728460312,
					0.020396854728460312,
					1
				],
				"metallicFactor":0,
				"roughnessFactor":0.07471264898777008
			}
		}
	],
	"meshes":[
		{
			"name":"Sphere.014",
			"primitives":[
				{
					"attributes":{
						"POSITION":0,
						"NORMAL":1,
						"TEXCOORD_0":2
					},
					"indices":3,
					"material":0
				}
			]
		}
	],
	"accessors":[
		{
			"bufferView":0,
			"componentType":5126,
			"count":54624,
			"max":[
				1.6695468425750732,
				0.6424955725669861,
				0.6758123636245728
			],
			"min":[
				-1.875625729560852,
				-0.7200181484222412,
				-0.699884831905365
			],
			"type":"VEC3"
		},
		{
			"bufferView":1,
			"componentType":5126,
			"count":54624,
			"type":"VEC3"
		},
		{
			"bufferView":2,
			"componentType":5126,
			"count":54624,
			"type":"VEC2"
		},
		{
			"bufferView":3,
			"componentType":5123,
			"count":304716,
			"type":"SCALAR"
		}
	],
	"bufferViews":[
		{
			"buffer":0,
			"byteLength":655488,
			"byteOffset":0,
			"target":34962
		},
		{
			"buffer":0,
			"byteLength":655488,
			"byteOffset":655488,
			"target":34962
		},
		{
			"buffer":0,
			"byteLength":436992,
			"byteOffset":1310976,
			"target":34962
		},
		{
			"buffer":0,
			"byteLength":609432,
			"byteOffset":1747968,
			"target":34963
		}
	],
	"buffers":[
		{
			"byteLength":2357400,
			"uri":"molecule.bin"
		}
	]
}
