{
	"asset":{
		"generator":"Khronos glTF Blender I/O v4.2.83",
		"version":"2.0"
	},
	"scene":0,
	"scenes":[
		{
			"name":"Scene",
			"nodes":[
				7
			]
		}
	],
	"nodes":[
		{
			"mesh":0,
			"name":"Pinza",
			"rotation":[
				0.006385885179042816,
				-0.0033521840814501047,
				-0.7059842348098755,
				0.7081907987594604
			],
			"translation":[
				0.22411735355854034,
				-0.07787527143955231,
				-0.00379577255807817
			]
		},
		{
			"children":[
				0
			],
			"mesh":1,
			"name":"Arm.001",
			"translation":[
				0.911014199256897,
				0.47450393438339233,
				0.03170685097575188
			]
		},
		{
			"children":[
				1
			],
			"mesh":2,
			"name":"Arm",
			"rotation":[
				0.4550948441028595,
				0.4559459090232849,
				0.5411918759346008,
				0.5404751300811768
			]
		},
		{
			"children":[
				2
			],
			"mesh":3,
			"name":"Base.002",
			"rotation":[
				0.5408338308334351,
				0.5408338308334351,
				-0.4555203914642334,
				0.4555203318595886
			],
			"translation":[
				-0.5973286032676697,
				0.2953462302684784,
				-0.9060983061790466
			]
		},
		{
			"children":[
				3
			],
			"mesh":4,
			"name":"Body.001",
			"rotation":[
				-0.5408337712287903,
				-0.5408339500427246,
				0.45552027225494385,
				0.4555204212665558
			]
		},
		{
			"children":[
				4
			],
			"mesh":5,
			"name":"Base.004",
			"rotation":[
				0.5408337712287903,
				0.5408338308334351,
				-0.4555203318595886,
				0.455520361661911
			],
			"translation":[
				0.4589182734489441,
				0.008569427765905857,
				-0.5514955520629883
			]
		},
		{
			"children":[
				5
			],
			"mesh":6,
			"name":"Body",
			"rotation":[
				-0.5408337712287903,
				-0.5408338308334351,
				0.455520361661911,
				0.4555203318595886
			],
			"translation":[
				-0.2364485263824463,
				-0.1844896376132965,
				-0.01641981489956379
			]
		},
		{
			"children":[
				6
			],
			"mesh":7,
			"name":"Base",
			"rotation":[
				0.455520361661911,
				0.5408339500427246,
				0.5408337712287903,
				0.4555202126502991
			],
			"translation":[
				0.018347710371017456,
				-1.3370263576507568,
				0.2333974391222
			]
		}
	],
	"animations":[
		{
			"channels":[
				{
					"sampler":0,
					"target":{
						"node":6,
						"path":"translation"
					}
				},
				{
					"sampler":1,
					"target":{
						"node":6,
						"path":"rotation"
					}
				}
			],
			"name":"BodyAction",
			"samplers":[
				{
					"input":40,
					"interpolation":"STEP",
					"output":41
				},
				{
					"input":42,
					"interpolation":"LINEAR",
					"output":43
				}
			]
		},
		{
			"channels":[
				{
					"sampler":0,
					"target":{
						"node":4,
						"path":"translation"
					}
				},
				{
					"sampler":1,
					"target":{
						"node":4,
						"path":"rotation"
					}
				}
			],
			"name":"Body.001Action",
			"samplers":[
				{
					"input":44,
					"interpolation":"LINEAR",
					"output":45
				},
				{
					"input":46,
					"interpolation":"LINEAR",
					"output":47
				}
			]
		},
		{
			"channels":[
				{
					"sampler":0,
					"target":{
						"node":3,
						"path":"translation"
					}
				},
				{
					"sampler":1,
					"target":{
						"node":3,
						"path":"rotation"
					}
				}
			],
			"name":"Base.002Action",
			"samplers":[
				{
					"input":48,
					"interpolation":"LINEAR",
					"output":49
				},
				{
					"input":48,
					"interpolation":"LINEAR",
					"output":50
				}
			]
		},
		{
			"channels":[
				{
					"sampler":0,
					"target":{
						"node":2,
						"path":"rotation"
					}
				}
			],
			"name":"ArmAction",
			"samplers":[
				{
					"input":51,
					"interpolation":"LINEAR",
					"output":52
				}
			]
		},
		{
			"channels":[
				{
					"sampler":0,
					"target":{
						"node":1,
						"path":"rotation"
					}
				}
			],
			"name":"Arm.001Action",
			"samplers":[
				{
					"input":53,
					"interpolation":"LINEAR",
					"output":54
				}
			]
		},
		{
			"channels":[
				{
					"sampler":0,
					"target":{
						"node":0,
						"path":"translation"
					}
				},
				{
					"sampler":1,
					"target":{
						"node":0,
						"path":"rotation"
					}
				}
			],
			"name":"PinzaAction.001",
			"samplers":[
				{
					"input":55,
					"interpolation":"LINEAR",
					"output":56
				},
				{
					"input":53,
					"interpolation":"LINEAR",
					"output":57
				}
			]
		}
	],
	"materials":[
		{
			"doubleSided":true,
			"name":"robot arm",
			"pbrMetallicRoughness":{
				"baseColorFactor":[
					0.0035388111136853695,
					0.0035388111136853695,
					0.0035388111136853695,
					1
				],
				"metallicFactor":0,
				"roughnessFactor":0.5
			}
		}
	],
	"meshes":[
		{
			"name":"Circle.003",
			"primitives":[
				{
					"attributes":{
						"POSITION":0,
						"NORMAL":1,
						"TEXCOORD_0":2,
						"TEXCOORD_1":3
					},
					"indices":4,
					"material":0
				}
			]
		},
		{
			"name":"Sphere.003",
			"primitives":[
				{
					"attributes":{
						"POSITION":5,
						"NORMAL":6,
						"TEXCOORD_0":7,
						"TEXCOORD_1":8
					},
					"indices":9,
					"material":0
				}
			]
		},
		{
			"name":"Sphere.004",
			"primitives":[
				{
					"attributes":{
						"POSITION":10,
						"NORMAL":11,
						"TEXCOORD_0":12,
						"TEXCOORD_1":13
					},
					"indices":14,
					"material":0
				}
			]
		},
		{
			"name":"CUBezierCurve.002",
			"primitives":[
				{
					"attributes":{
						"POSITION":15,
						"NORMAL":16,
						"TEXCOORD_0":17,
						"TEXCOORD_1":18
					},
					"indices":19,
					"material":0
				}
			]
		},
		{
			"name":"Circle.006",
			"primitives":[
				{
					"attributes":{
						"POSITION":20,
						"NORMAL":21,
						"TEXCOORD_0":22,
						"TEXCOORD_1":23
					},
					"indices":24,
					"material":0
				}
			]
		},
		{
			"name":"CUBezierCurve.004",
			"primitives":[
				{
					"attributes":{
						"POSITION":25,
						"NORMAL":26,
						"TEXCOORD_0":27,
						"TEXCOORD_1":28
					},
					"indices":29,
					"material":0
				}
			]
		},
		{
			"name":"Circle.001",
			"primitives":[
				{
					"attributes":{
						"POSITION":30,
						"NORMAL":31,
						"TEXCOORD_0":32,
						"TEXCOORD_1":33
					},
					"indices":34,
					"material":0
				}
			]
		},
		{
			"name":"CUBezierCurve",
			"primitives":[
				{
					"attributes":{
						"POSITION":35,
						"NORMAL":36,
						"TEXCOORD_0":37,
						"TEXCOORD_1":38
					},
					"indices":39,
					"material":0
				}
			]
		}
	],
	"accessors":[
		{
			"bufferView":0,
			"componentType":5126,
			"count":16556,
			"max":[
				0.25065359473228455,
				0.5428864359855652,
				0.1217276081442833
			],
			"min":[
				-0.24756531417369843,
				-0.012794094160199165,
				-0.12172745913267136
			],
			"type":"VEC3"
		},
		{
			"bufferView":1,
			"componentType":5126,
			"count":16556,
			"type":"VEC3"
		},
		{
			"bufferView":2,
			"componentType":5126,
			"count":16556,
			"type":"VEC2"
		},
		{
			"bufferView":3,
			"componentType":5126,
			"count":16556,
			"type":"VEC2"
		},
		{
			"bufferView":4,
			"componentType":5123,
			"count":75792,
			"type":"SCALAR"
		},
		{
			"bufferView":5,
			"componentType":5126,
			"count":3368,
			"max":[
				0.21159373223781586,
				0.14950785040855408,
				0.16381464898586273
			],
			"min":[
				-0.16381461918354034,
				-0.20150820910930634,
				-0.1638146936893463
			],
			"type":"VEC3"
		},
		{
			"bufferView":6,
			"componentType":5126,
			"count":3368,
			"type":"VEC3"
		},
		{
			"bufferView":7,
			"componentType":5126,
			"count":3368,
			"type":"VEC2"
		},
		{
			"bufferView":8,
			"componentType":5126,
			"count":3368,
			"type":"VEC2"
		},
		{
			"bufferView":9,
			"componentType":5123,
			"count":15264,
			"type":"SCALAR"
		},
		{
			"bufferView":10,
			"componentType":5126,
			"count":10167,
			"max":[
				1.060531735420227,
				0.7264593839645386,
				0.22119158506393433
			],
			"min":[
				-0.22732210159301758,
				0.16266055405139923,
				-0.1573074758052826
			],
			"type":"VEC3"
		},
		{
			"bufferView":11,
			"componentType":5126,
			"count":10167,
			"type":"VEC3"
		},
		{
			"bufferView":12,
			"componentType":5126,
			"count":10167,
			"type":"VEC2"
		},
		{
			"bufferView":13,
			"componentType":5126,
			"count":10167,
			"type":"VEC2"
		},
		{
			"bufferView":14,
			"componentType":5123,
			"count":48012,
			"type":"SCALAR"
		},
		{
			"bufferView":15,
			"componentType":5126,
			"count":233,
			"max":[
				0.14374536275863647,
				0.14605078101158142,
				0.07340136915445328
			],
			"min":[
				-0.1528879553079605,
				-0.14627978205680847,
				-0.02803621254861355
			],
			"type":"VEC3"
		},
		{
			"bufferView":16,
			"componentType":5126,
			"count":233,
			"type":"VEC3"
		},
		{
			"bufferView":17,
			"componentType":5126,
			"count":233,
			"type":"VEC2"
		},
		{
			"bufferView":18,
			"componentType":5126,
			"count":233,
			"type":"VEC2"
		},
		{
			"bufferView":19,
			"componentType":5123,
			"count":1056,
			"type":"SCALAR"
		},
		{
			"bufferView":20,
			"componentType":5126,
			"count":22924,
			"max":[
				0.24788285791873932,
				0.3005448579788208,
				0.24679826200008392
			],
			"min":[
				-0.8035253286361694,
				-0.17795100808143616,
				-1.1079429388046265
			],
			"type":"VEC3"
		},
		{
			"bufferView":21,
			"componentType":5126,
			"count":22924,
			"type":"VEC3"
		},
		{
			"bufferView":22,
			"componentType":5126,
			"count":22924,
			"type":"VEC2"
		},
		{
			"bufferView":23,
			"componentType":5126,
			"count":22924,
			"type":"VEC2"
		},
		{
			"bufferView":24,
			"componentType":5123,
			"count":126240,
			"type":"SCALAR"
		},
		{
			"bufferView":25,
			"componentType":5126,
			"count":1434,
			"max":[
				0.2410610318183899,
				0.20877237617969513,
				0.3726433515548706
			],
			"min":[
				-0.24344900250434875,
				-0.20847314596176147,
				-0.35648003220558167
			],
			"type":"VEC3"
		},
		{
			"bufferView":26,
			"componentType":5126,
			"count":1434,
			"type":"VEC3"
		},
		{
			"bufferView":27,
			"componentType":5126,
			"count":1434,
			"type":"VEC2"
		},
		{
			"bufferView":28,
			"componentType":5126,
			"count":1434,
			"type":"VEC2"
		},
		{
			"bufferView":29,
			"componentType":5123,
			"count":6336,
			"type":"SCALAR"
		},
		{
			"bufferView":30,
			"componentType":5126,
			"count":4080,
			"max":[
				0.7250069379806519,
				0.3348056972026825,
				0.036119986325502396
			],
			"min":[
				-0.4913741648197174,
				-0.33207428455352783,
				-0.8150393962860107
			],
			"type":"VEC3"
		},
		{
			"bufferView":31,
			"componentType":5126,
			"count":4080,
			"type":"VEC3"
		},
		{
			"bufferView":32,
			"componentType":5126,
			"count":4080,
			"type":"VEC2"
		},
		{
			"bufferView":33,
			"componentType":5126,
			"count":4080,
			"type":"VEC2"
		},
		{
			"bufferView":34,
			"componentType":5123,
			"count":18024,
			"type":"SCALAR"
		},
		{
			"bufferView":35,
			"componentType":5126,
			"count":20095,
			"max":[
				-0.17282666265964508,
				0.30709409713745117,
				0.4229772686958313
			],
			"min":[
				-0.605519711971283,
				-0.6760736107826233,
				-0.5494657754898071
			],
			"type":"VEC3"
		},
		{
			"bufferView":36,
			"componentType":5126,
			"count":20095,
			"type":"VEC3"
		},
		{
			"bufferView":37,
			"componentType":5126,
			"count":20095,
			"type":"VEC2"
		},
		{
			"bufferView":38,
			"componentType":5126,
			"count":20095,
			"type":"VEC2"
		},
		{
			"bufferView":39,
			"componentType":5123,
			"count":106464,
			"type":"SCALAR"
		},
		{
			"bufferView":40,
			"componentType":5126,
			"count":2,
			"max":[
				10.416666666666666
			],
			"min":[
				0.041666666666666664
			],
			"type":"SCALAR"
		},
		{
			"bufferView":41,
			"componentType":5126,
			"count":2,
			"type":"VEC3"
		},
		{
			"bufferView":42,
			"componentType":5126,
			"count":250,
			"max":[
				10.416666666666666
			],
			"min":[
				0.041666666666666664
			],
			"type":"SCALAR"
		},
		{
			"bufferView":43,
			"componentType":5126,
			"count":250,
			"type":"VEC4"
		},
		{
			"bufferView":44,
			"componentType":5126,
			"count":2,
			"max":[
				10.375
			],
			"min":[
				0.041666666666666664
			],
			"type":"SCALAR"
		},
		{
			"bufferView":45,
			"componentType":5126,
			"count":2,
			"type":"VEC3"
		},
		{
			"bufferView":46,
			"componentType":5126,
			"count":249,
			"max":[
				10.375
			],
			"min":[
				0.041666666666666664
			],
			"type":"SCALAR"
		},
		{
			"bufferView":47,
			"componentType":5126,
			"count":249,
			"type":"VEC4"
		},
		{
			"bufferView":48,
			"componentType":5126,
			"count":1,
			"max":[
				0.041666666666666664
			],
			"min":[
				0.041666666666666664
			],
			"type":"SCALAR"
		},
		{
			"bufferView":49,
			"componentType":5126,
			"count":1,
			"type":"VEC3"
		},
		{
			"bufferView":50,
			"componentType":5126,
			"count":1,
			"type":"VEC4"
		},
		{
			"bufferView":51,
			"componentType":5126,
			"count":251,
			"max":[
				10.416666666666666
			],
			"min":[
				0
			],
			"type":"SCALAR"
		},
		{
			"bufferView":52,
			"componentType":5126,
			"count":251,
			"type":"VEC4"
		},
		{
			"bufferView":53,
			"componentType":5126,
			"count":211,
			"max":[
				10.416666666666666
			],
			"min":[
				1.6666666666666667
			],
			"type":"SCALAR"
		},
		{
			"bufferView":54,
			"componentType":5126,
			"count":211,
			"type":"VEC4"
		},
		{
			"bufferView":55,
			"componentType":5126,
			"count":2,
			"max":[
				10.416666666666666
			],
			"min":[
				1.6666666666666667
			],
			"type":"SCALAR"
		},
		{
			"bufferView":56,
			"componentType":5126,
			"count":2,
			"type":"VEC3"
		},
		{
			"bufferView":57,
			"componentType":5126,
			"count":211,
			"type":"VEC4"
		}
	],
	"bufferViews":[
		{
			"buffer":0,
			"byteLength":198672,
			"byteOffset":0,
			"target":34962
		},
		{
			"buffer":0,
			"byteLength":198672,
			"byteOffset":198672,
			"target":34962
		},
		{
			"buffer":0,
			"byteLength":132448,
			"byteOffset":397344,
			"target":34962
		},
		{
			"buffer":0,
			"byteLength":132448,
			"byteOffset":529792,
			"target":34962
		},
		{
			"buffer":0,
			"byteLength":151584,
			"byteOffset":662240,
			"target":34963
		},
		{
			"buffer":0,
			"byteLength":40416,
			"byteOffset":813824,
			"target":34962
		},
		{
			"buffer":0,
			"byteLength":40416,
			"byteOffset":854240,
			"target":34962
		},
		{
			"buffer":0,
			"byteLength":26944,
			"byteOffset":894656,
			"target":34962
		},
		{
			"buffer":0,
			"byteLength":26944,
			"byteOffset":921600,
			"target":34962
		},
		{
			"buffer":0,
			"byteLength":30528,
			"byteOffset":948544,
			"target":34963
		},
		{
			"buffer":0,
			"byteLength":122004,
			"byteOffset":979072,
			"target":34962
		},
		{
			"buffer":0,
			"byteLength":122004,
			"byteOffset":1101076,
			"target":34962
		},
		{
			"buffer":0,
			"byteLength":81336,
			"byteOffset":1223080,
			"target":34962
		},
		{
			"buffer":0,
			"byteLength":81336,
			"byteOffset":1304416,
			"target":34962
		},
		{
			"buffer":0,
			"byteLength":96024,
			"byteOffset":1385752,
			"target":34963
		},
		{
			"buffer":0,
			"byteLength":2796,
			"byteOffset":1481776,
			"target":34962
		},
		{
			"buffer":0,
			"byteLength":2796,
			"byteOffset":1484572,
			"target":34962
		},
		{
			"buffer":0,
			"byteLength":1864,
			"byteOffset":1487368,
			"target":34962
		},
		{
			"buffer":0,
			"byteLength":1864,
			"byteOffset":1489232,
			"target":34962
		},
		{
			"buffer":0,
			"byteLength":2112,
			"byteOffset":1491096,
			"target":34963
		},
		{
			"buffer":0,
			"byteLength":275088,
			"byteOffset":1493208,
			"target":34962
		},
		{
			"buffer":0,
			"byteLength":275088,
			"byteOffset":1768296,
			"target":34962
		},
		{
			"buffer":0,
			"byteLength":183392,
			"byteOffset":2043384,
			"target":34962
		},
		{
			"buffer":0,
			"byteLength":183392,
			"byteOffset":2226776,
			"target":34962
		},
		{
			"buffer":0,
			"byteLength":252480,
			"byteOffset":2410168,
			"target":34963
		},
		{
			"buffer":0,
			"byteLength":17208,
			"byteOffset":2662648,
			"target":34962
		},
		{
			"buffer":0,
			"byteLength":17208,
			"byteOffset":2679856,
			"target":34962
		},
		{
			"buffer":0,
			"byteLength":11472,
			"byteOffset":2697064,
			"target":34962
		},
		{
			"buffer":0,
			"byteLength":11472,
			"byteOffset":2708536,
			"target":34962
		},
		{
			"buffer":0,
			"byteLength":12672,
			"byteOffset":2720008,
			"target":34963
		},
		{
			"buffer":0,
			"byteLength":48960,
			"byteOffset":2732680,
			"target":34962
		},
		{
			"buffer":0,
			"byteLength":48960,
			"byteOffset":2781640,
			"target":34962
		},
		{
			"buffer":0,
			"byteLength":32640,
			"byteOffset":2830600,
			"target":34962
		},
		{
			"buffer":0,
			"byteLength":32640,
			"byteOffset":2863240,
			"target":34962
		},
		{
			"buffer":0,
			"byteLength":36048,
			"byteOffset":2895880,
			"target":34963
		},
		{
			"buffer":0,
			"byteLength":241140,
			"byteOffset":2931928,
			"target":34962
		},
		{
			"buffer":0,
			"byteLength":241140,
			"byteOffset":3173068,
			"target":34962
		},
		{
			"buffer":0,
			"byteLength":160760,
			"byteOffset":3414208,
			"target":34962
		},
		{
			"buffer":0,
			"byteLength":160760,
			"byteOffset":3574968,
			"target":34962
		},
		{
			"buffer":0,
			"byteLength":212928,
			"byteOffset":3735728,
			"target":34963
		},
		{
			"buffer":0,
			"byteLength":8,
			"byteOffset":3948656
		},
		{
			"buffer":0,
			"byteLength":24,
			"byteOffset":3948664
		},
		{
			"buffer":0,
			"byteLength":1000,
			"byteOffset":3948688
		},
		{
			"buffer":0,
			"byteLength":4000,
			"byteOffset":3949688
		},
		{
			"buffer":0,
			"byteLength":8,
			"byteOffset":3953688
		},
		{
			"buffer":0,
			"byteLength":24,
			"byteOffset":3953696
		},
		{
			"buffer":0,
			"byteLength":996,
			"byteOffset":3953720
		},
		{
			"buffer":0,
			"byteLength":3984,
			"byteOffset":3954716
		},
		{
			"buffer":0,
			"byteLength":4,
			"byteOffset":3958700
		},
		{
			"buffer":0,
			"byteLength":12,
			"byteOffset":3958704
		},
		{
			"buffer":0,
			"byteLength":16,
			"byteOffset":3958716
		},
		{
			"buffer":0,
			"byteLength":1004,
			"byteOffset":3958732
		},
		{
			"buffer":0,
			"byteLength":4016,
			"byteOffset":3959736
		},
		{
			"buffer":0,
			"byteLength":844,
			"byteOffset":3963752
		},
		{
			"buffer":0,
			"byteLength":3376,
			"byteOffset":3964596
		},
		{
			"buffer":0,
			"byteLength":8,
			"byteOffset":3967972
		},
		{
			"buffer":0,
			"byteLength":24,
			"byteOffset":3967980
		},
		{
			"buffer":0,
			"byteLength":3376,
			"byteOffset":3968004
		}
	],
	"buffers":[
		{
			"byteLength":3971380,
			"uri":"robot_arm.bin"
		}
	]
}
